<svg xmlns="http://www.w3.org/2000/svg" version="1.1" xmlns:xlink="http://www.w3.org/1999/xlink" width="1500" height="1500"><svg xmlns="http://www.w3.org/2000/svg" version="1.1" xmlns:xlink="http://www.w3.org/1999/xlink" width="1500" height="1500" viewBox="0 0 1500 1500"><rect width="1500" height="1500" x="0" y="0" id="SvgjsRect1025" stroke="transparent" fill="#ffffff"></rect><svg xml:space="preserve" width="1000" height="1000" data-version="2" data-id="lg_5iluySw63d8JSTvEab" viewBox="0 0 774 389" x="250" y="250"><rect width="100%" height="100%" fill="transparent"></rect><path fill="red" d="m7.44 170.15 6.05-30.69q2.97-15.07 5.83-29.81 3.08-17.16 6.27-34.76 3.19-17.6 5.94-34.32 2.75-16.72 4.29-31.02 3.52-.22 6.82-.44 3.3-.22 6.38-.44 2.86-.22 5.83-.44t5.83-.44l10.56-.66q1.54 8.36 2.75 16.5t2.31 15.84q.88 5.28 2.09 12.32t2.42 14.41q1.21 7.37 2.42 13.75t2.09 10.34q2.2-11.66 3.63-19.25 1.43-7.59 2.86-14.74t3.41-16.83l6.82-32.12 26.84-3.3q-3.74 16.5-7.04 32.12-3.3 15.62-6.16 30.36-5.5 26.62-9.68 49.83-4.18 23.21-6.38 40.59l-35.86 8.36-3.3-33.88q-.44-5.06-1.32-12.21-.88-7.15-1.76-14.74t-1.76-13.86q-.88-6.27-1.32-9.35-2.2 12.98-4.18 25.19-1.98 12.21-4.4 23.65-1.54 7.7-2.97 15.95-1.43 8.25-3.19 16.61Z"></path><rect width="121.44" height="166.1" x="-60.72" y="-83.05" fill="none" rx="0" ry="0" transform="translate(68.66 87.6)"></rect><path fill="red" d="M106.88 168.83q3.08-12.76 6.16-28.93t6.16-33.55q3.08-17.38 5.72-33.44 2.42-14.08 4.73-28.6 2.31-14.52 4.51-29.26l34.32-5.5-9.9 57.86q-3.3 20.46-5.83 36.74-2.53 16.28-4.84 30.8t-4.73 29.7q-4.18 0-10.12.55-5.94.55-11.88 1.32t-10.01 1.43q-4.07.66-4.29.88"></path><rect width="61.6" height="159.28" x="-30.8" y="-79.64" fill="none" rx="0" ry="0" transform="translate(138.18 89.69)"></rect><path fill="red" d="M199.28 174.33q-8.14 0-15.51-3.52-7.37-3.52-12.65-10.78-5.5-7.04-8.58-17.82-3.08-10.78-3.08-25.3 0-28.38 8.14-49.5t20.68-35.2q12.32-14.08 26.51-20.9 14.19-6.82 26.51-6.82 11.88 0 19.36 5.17 7.48 5.17 11 13.75 3.52 8.58 3.52 19.14l-30.14 5.72q-1.98-8.8-5.28-12.54-3.3-3.74-7.48-3.74-4.84 0-10.01 5.28t-10.12 14.19q-4.95 8.91-8.91 19.91t-6.49 22.66q-2.53 11.66-2.97 22 0 13.64 4.07 19.47 4.07 5.83 10.45 5.83 6.16 0 12.21-3.96 6.05-3.96 10.12-10.67 4.07-6.71 4.29-15.07l-23.54 3.52 4.18-21.78 20.24-2.64q8.36-1.1 17.71-2.64 9.35-1.54 16.39-2.86-1.54 22.44-8.69 39.27-7.15 16.83-17.71 27.83t-22.11 16.5q-11.55 5.5-22.11 5.5"></path><rect width="115.72" height="169.84" x="-57.86" y="-84.92" fill="none" rx="0" ry="0" transform="translate(217.82 89.91)"></rect><path fill="red" d="M261.76 169.49q6.38-30.8 11.88-60.06 3.08-17.82 6.27-36.08 3.19-18.26 5.83-34.98 2.64-16.72 3.96-29.92 5.94.22 9.79.55 3.85.33 7.26.55 3.41.22 7.7.33 4.29.11 10.89.11-3.74 15.62-7.37 31.24t-6.71 31.46l21.78-2.42q1.54-7.7 2.97-15.29 1.43-7.59 2.53-15.07 1.1-7.26 2.75-14.85t3.63-15.29q7.92-1.32 16.06-2.09 8.14-.77 13.64-1.1l5.5-.33q-2.86 8.8-5.72 20.68-2.86 11.88-5.5 25.08-2.64 13.2-5.06 26.29-2.42 13.09-4.4 24.31-2.42 14.08-4.62 28.27t-4.4 28.93l-34.32 3.96q1.54-6.6 2.75-13.09t2.31-12.65q2.2-10.56 4.51-22 2.31-11.44 3.63-19.58l-21.34 1.98q-.88 4.18-1.65 9.02-.77 4.84-1.87 10.34t-2.09 10.67q-.99 5.17-1.87 10.23-1.1 5.94-2.42 11.88-1.32 5.94-2.42 11.88Z"></path><rect width="118.36" height="163.24" x="-59.18" y="-81.62" fill="none" rx="0" ry="0" transform="translate(321.44 88.37)"></rect><path fill="red" d="M376.82 169.27q2.42-12.1 4.95-24.09 2.53-11.99 4.73-23.65 8.36-41.8 13.64-80.08-2.42-.44-5.06-.55-2.64-.11-5.06.11-5.28.44-10.34-1.32.22-1.76.22-3.85v-9.02q0-2.31.22-4.51.22-2.42.22-5.17t.22-5.61q5.72.44 11.44.66 5.72.22 11.44.22 16.28 0 31.13-1.1 14.85-1.1 27.39-2.64l-2.42 11.88-1.98 10.34q-1.1 5.72-1.98 9.02-2.42.66-4.84 1.1-2.42.44-4.84.66-2.42.22-4.95.66-2.53.44-4.95.88-3.3 16.28-5.39 28.16-2.09 11.88-3.74 22.77-1.65 10.89-3.85 23.87-3.74 22.22-6.6 45.1Z"></path><rect width="85.14" height="160.6" x="-42.57" y="-80.3" fill="none" rx="0" ry="0" transform="translate(419.89 89.47)"></rect><path fill="red" d="M482.2 169.49q2.42-17.38 5.17-34.98 2.75-17.6 5.72-33.99 2.97-16.39 5.61-29.59 2.86-14.3 5.72-29.04 2.86-14.74 5.94-29.7l38.5-5.06-11.44 49.72q-3.08 12.98-6.27 27.83-3.19 14.85-5.83 28.71-2.64 13.86-4.18 24.64 5.5-.44 11.77-.55 6.27-.11 11.11-.11.22 5.06.88 10.67t1.43 9.68q.77 4.07.77 4.51h-1.65q-.77 0-1.65-.22h-3.52q-8.58 0-19.03.77-10.45.77-20.68 2.42t-18.37 4.29"></path><rect width="66.66" height="162.36" x="-33.33" y="-81.18" fill="none" rx="0" ry="0" transform="translate(516.03 88.81)"></rect><path fill="red" d="M547.1 168.83q3.08-12.76 6.16-28.93t6.16-33.55q3.08-17.38 5.72-33.44 2.42-14.08 4.73-28.6 2.31-14.52 4.51-29.26l34.32-5.5-9.9 57.86q-3.3 20.46-5.83 36.74-2.53 16.28-4.84 30.8t-4.73 29.7q-4.18 0-10.12.55-5.94.55-11.88 1.32t-10.01 1.43q-4.07.66-4.29.88"></path><rect width="61.6" height="159.28" x="-30.8" y="-79.64" fill="none" rx="0" ry="0" transform="translate(578.4 89.69)"></rect><path fill="red" d="M591.32 169.27q3.08-10.56 5.94-24.09 2.86-13.53 5.39-27.61t4.73-26.18q2.2-12.1 3.52-20.02 2.42-14.74 4.73-29.81 2.31-15.07 4.51-30.69l73.7-3.74-6.38 27.06h-34.54l-6.82 39.16q3.52-.22 6.71-.22h21.23q1.98 0 3.52-.22-.22 3.08-.66 6.05-.44 2.97-.88 6.05l-1.98 11.88q-4.62 0-13.31-.33-8.69-.33-18.37-.55l-10.12 64.9q-3.74.66-7.37 1.32t-7.37 1.54q-6.16 1.1-13.42 2.64t-12.76 2.86"></path><rect width="102.52" height="162.14" x="-51.26" y="-81.07" fill="none" rx="0" ry="0" transform="translate(643.08 88.7)"></rect><path fill="red" d="m667.22 169.27 28.82-156.42 69.52-5.94q-1.54 4.84-2.64 9.9-1.1 4.18-2.09 8.69-.99 4.51-1.65 8.03-2.86.22-8.14.33-5.28.11-10.78.22-5.5.11-9.46.11h-4.18l-7.7 39.38 12.76-.66q2.42-.22 4.95-.22h9.35q1.98 0 3.08-.22-.44 3.08-.77 6.05-.33 2.97-.77 6.05l-1.98 12.1q-1.1.22-2.86.22h-4.18q-2.42.22-5.06.22-2.64 0-5.06.22-2.86.22-5.94.22-3.08 0-6.6.22l-7.48 40.48 32.12-5.06-2.2 25.08Z"></path><rect width="98.34" height="162.36" x="-49.17" y="-81.18" fill="none" rx="0" ry="0" transform="translate(716.89 88.59)"></rect><path fill="red" d="M178.82 383.07q-6.16 0-13.31-2.64t-15.73-9.02l15.18-33.88q1.1 2.2 4.29 3.85t6.93 1.65q2.86 0 5.06-4.62 2.2-4.62 3.63-11.22 1.43-6.6 2.31-12.43.88-5.83 1.1-8.25 2.2-10.78 4.18-21.34 1.98-10.56 3.74-21.34 1.76-10.56 4.07-21.12 2.31-10.56 4.73-21.12 9.9-.88 19.47-2.75 9.57-1.87 19.25-4.51-3.3 11.22-6.82 25.41-3.52 14.19-6.82 29.37-3.3 15.18-6.27 29.48-2.97 14.3-5.17 25.74-1.98 9.24-4.84 19.47-2.86 10.23-7.48 19.14-4.62 8.91-11.33 14.52-6.71 5.61-16.17 5.61"></path><rect width="93.94" height="168.74" x="-46.97" y="-84.37" fill="none" rx="0" ry="0" transform="translate(197.25 299.2)"></rect><path fill="red" d="M274.08 382.41q.44-3.74.88-7.26l.88-7.04 1.32-12.32q.22-3.08.44-5.72.22-2.64.44-4.84H258.9l-8.8 31.68q-4.84.66-11.44 1.43-6.6.77-12.32 1.43-3.52.44-6.93.88-3.41.44-6.93.88l17.38-57.64q3.08-10.34 7.04-23.54t8.03-27.06q4.07-13.86 7.7-26.07t5.83-20.57q14.96-1.1 30.47-2.64 15.51-1.54 30.25-4.18-1.1 12.32-2.09 27.83-.99 15.51-1.76 32.01t-1.65 32.56q-.44 15.18-1.1 31.35-.66 16.17-1.32 33.11l-6.6.88-6.6.88q-5.5.88-12.1 1.98zm-9.9-59.18q1.32 0 4.95-.22t6.93-.44q3.3-.22 3.96-.22 0-2.86.88-11.66t1.76-18.48q.44-5.72.99-11.77t1.21-12.43l1.32-19.14-3.3.22-5.06 18.92Z"></path><rect width="106.7" height="162.58" x="-53.35" y="-81.29" fill="none" rx="0" ry="0" transform="translate(266.33 301.62)"></rect><path fill="red" d="M311.7 383.07q6.6-29.7 12.54-58.08 2.42-11.44 4.95-24.53 2.53-13.09 5.17-26.51 2.64-13.42 4.84-25.41 2.2-11.99 3.52-21.01 8.8-2.64 19.03-4.84 10.23-2.2 18.37-2.2 13.2 0 20.9 5.61 7.7 5.61 11 15.07t3.3 20.68q0 12.32-4.51 23.65-4.51 11.33-12.1 20.35-7.59 9.02-17.38 14.3-9.79 5.28-20.35 5.28h-2.42q-1.76 7.48-3.3 16.28-1.54 8.8-2.64 16.28-.88 4.4-1.54 8.8l-1.32 8.8Zm51.26-80.74q5.06-1.32 10.12-6.71t8.36-13.75q3.3-8.36 3.3-18.26 0-8.14-3.63-12.32t-8.03-4.18q-2.42 14.52-4.84 27.5t-5.28 27.72"></path><rect width="103.62" height="162.58" x="-51.81" y="-81.29" fill="none" rx="0" ry="0" transform="translate(364.01 302.28)"></rect><path fill="red" d="M452.72 382.41q.44-3.74.88-7.26l.88-7.04 1.32-12.32q.22-3.08.44-5.72.22-2.64.44-4.84h-19.14l-8.8 31.68q-4.84.66-11.44 1.43-6.6.77-12.32 1.43-3.52.44-6.93.88-3.41.44-6.93.88l17.38-57.64q3.08-10.34 7.04-23.54t8.03-27.06q4.07-13.86 7.7-26.07t5.83-20.57q14.96-1.1 30.47-2.64 15.51-1.54 30.25-4.18-1.1 12.32-2.09 27.83-.99 15.51-1.76 32.01t-1.65 32.56q-.44 15.18-1.1 31.35-.66 16.17-1.32 33.11l-6.6.88-6.6.88q-5.5.88-12.1 1.98zm-9.9-59.18q1.32 0 4.95-.22t6.93-.44q3.3-.22 3.96-.22 0-2.86.88-11.66t1.76-18.48q.44-5.72.99-11.77t1.21-12.43l1.32-19.14-3.3.22-5.06 18.92Z"></path><rect width="106.7" height="162.58" x="-53.35" y="-81.29" fill="none" rx="0" ry="0" transform="translate(444.97 301.62)"></rect><path fill="red" d="M492.1 383.95q6.6-31.68 12.54-61.38 4.84-27.94 9.46-53.68 4.62-25.74 6.6-47.3 1.54.22 2.75.22h6.71q5.72 0 12.76-.33t12.98-.55q1.54 7.7 2.97 15.18 1.43 7.48 2.53 14.52 1.1 6.16 2.42 12.65 1.32 6.49 2.64 13.09 1.1 6.6 2.31 12.21 1.21 5.61 2.09 10.23 2.64-12.98 4.95-25.52t4.51-22.66l6.38-29.48 26.84-3.3q-3.74 16.72-7.04 32.78-3.3 16.06-6.16 31.02-5.5 26.84-9.68 50.6t-6.38 41.36q2.42 0-.77.55t-9.35 1.54q-6.16.99-13.2 2.53-7.04 1.54-12.54 3.74-.66-8.8-1.32-17.16t-1.54-16.28q-1.32-14.08-3.08-27.94-1.76-13.86-3.52-22-1.54 9.68-3.74 22.11t-4.84 24.97l-6.16 30.8Z"></path><rect width="121.44" height="166.1" x="-60.72" y="-83.05" fill="none" rx="0" ry="0" transform="translate(553.32 301.4)"></rect></svg></svg><style>@media (prefers-color-scheme: light) { :root { filter: none; } }
@media (prefers-color-scheme: dark) { :root { filter: none; } }
</style></svg>