<svg xmlns="http://www.w3.org/2000/svg" version="1.1" xmlns:xlink="http://www.w3.org/1999/xlink" width="300" height="38" viewBox="0 0 1500 191"><svg xml:space="preserve" width="1500" height="191" data-version="2" data-id="lg_5iluySw63d8JSTvEab" viewBox="0 0 396 191" x="0" y="0"><rect width="100%" height="100%" fill="transparent"></rect><path fill="red" d="M5.1 79.885q-.87 0-.87-.77l-.11-74.91q0-.88.88-.88h9.9l18.59 43.34-.55-42.46q0-.88.99-.88h10.89q.66 0 .66.88l.11 75.02q0 .66-.55.66h-9.69l-19.03-40.48.78 39.6q0 .88-1 .88Z"></path><rect width="41.47" height="76.56" x="-20.73" y="-38.28" fill="none" rx="0" ry="0" transform="translate(25.36 42.1)"></rect><path fill="red" d="M55.7 79.885q-.55 0-.55-.55l.11-75.57q0-.44.44-.44h12.32q.44 0 .44.44l.11 75.57q0 .55-.43.55Z"></path><rect width="13.42" height="76.56" x="-6.71" y="-38.28" fill="none" rx="0" ry="0" transform="translate(62.36 42.1)"></rect><path fill="red" d="M98.39 80.985q-5.94 0-10.78-2.97-4.84-2.97-7.76-7.97-2.91-5.01-2.91-11.17v-34.87q0-5.94 2.91-10.94 2.92-5.01 7.81-7.98 4.9-2.97 10.73-2.97 6.05 0 10.94 2.92 4.9 2.91 7.76 7.86 2.86 4.95 2.86 11.11v5.06q0 .44-.56.44h-12.31q-.44 0-.44-.44v-4.18q0-4.18-2.37-6.93-2.36-2.75-5.88-2.75-3.19 0-5.67 2.64-2.47 2.64-2.47 6.16v34.87q0 3.63 2.42 6.22 2.42 2.58 5.72 2.58 3.52 0 5.88-2.53 2.37-2.53 2.37-6.27v-5.39h-7.7q-.55 0-.55-.55v-12.32q0-.55.55-.55h20.57q.44 0 .44.55v18.26q0 6.16-2.92 11.17-2.91 5-7.75 7.97-4.84 2.97-10.89 2.97"></path><rect width="43.01" height="78.87" x="-21.5" y="-39.44" fill="none" rx="0" ry="0" transform="translate(98.94 42.05)"></rect><path fill="red" d="M128.2 79.885q-.44 0-.44-.55l.11-75.57q0-.44.55-.44h12.21q.55 0 .55.44l-.11 29.92h16.5V3.765q0-.44.44-.44h12.21q.55 0 .55.44l.22 75.57q0 .55-.55.55h-12.32q-.55 0-.55-.55v-32.34h-16.5v32.34q0 .55-.44.55Z"></path><rect width="43.23" height="76.56" x="-21.61" y="-38.28" fill="none" rx="0" ry="0" transform="translate(149.88 42.1)"></rect><path fill="red" d="M191.01 79.885q-.44 0-.44-.55v-62.7h-14.3q-.55 0-.55-.55l.11-12.32q0-.44.44-.44h41.8q.55 0 .55.44v12.32q0 .55-.44.55h-14.41l.11 62.7q0 .55-.44.55Z"></path><rect width="42.9" height="76.56" x="-21.45" y="-38.28" fill="none" rx="0" ry="0" transform="translate(197.67 42.1)"></rect><path fill="red" d="M240.72 79.885q-.44 0-.44-.55l.12-75.46q0-.55.55-.55h12.21q.55 0 .55.55l-.12 62.48h22.67q.55 0 .55.55v12.43q0 .55-.55.55Z"></path><rect width="36.53" height="76.56" x="-18.27" y="-38.28" fill="none" rx="0" ry="0" transform="translate(259.05 42.1)"></rect><path fill="red" d="M284.5 79.885q-.55 0-.55-.55l.11-75.57q0-.44.44-.44h12.32q.44 0 .44.44l.11 75.57q0 .55-.44.55Z"></path><rect width="13.42" height="76.56" x="-6.71" y="-38.28" fill="none" rx="0" ry="0" transform="translate(291.16 42.1)"></rect><path fill="red" d="M307.6 79.885q-.55 0-.55-.55l.23-75.57q0-.44.44-.44h35.19q.55 0 .55.44v12.43q0 .44-.43.44h-22.55v17.05h22.55q.43 0 .43.55l.11 12.43q0 .44-.54.44h-22.55v32.23q0 .55-.56.55Z"></path><rect width="36.52" height="76.56" x="-18.26" y="-38.28" fill="none" rx="0" ry="0" transform="translate(325.81 42.1)"></rect><path fill="red" d="M354.91 79.885q-.44 0-.44-.55l.11-75.57q0-.44.44-.44h35.31q.44 0 .44.55v12.32q0 .44-.44.44h-22.55v17.16h22.55q.44 0 .44.44l.11 12.43q0 .44-.44.44h-22.66v19.25h22.66q.44 0 .44.55v12.54q0 .44-.44.44Z"></path><rect width="36.41" height="76.56" x="-18.2" y="-38.28" fill="none" rx="0" ry="0" transform="translate(373.18 42.1)"></rect><path fill="red" d="M102.18 187.885q-6.16 0-11.05-2.92-4.9-2.91-7.7-8.03-2.81-5.11-2.81-11.49v-5.06q0-.44.44-.44h12.43q.44 0 .44.55v4.95q0 4.07 2.31 6.6 2.31 2.53 5.94 2.53 3.3 0 5.72-2.75t2.42-6.38v-54.67q0-.44.44-.44h12.32q.44 0 .44.55l.11 54.56q0 6.05-2.91 11.16-2.92 5.12-7.76 8.2-4.84 3.08-10.78 3.08"></path><rect width="43.01" height="77.55" x="-21.5" y="-38.77" fill="none" rx="0" ry="0" transform="translate(102.63 149.61)"></rect><path fill="red" d="m126.05 186.235 13.64-75.57q.11-.44.55-.44h15.95q.44 0 .55.44l13.09 75.57q.11.55-.44.55h-12.21q-.44 0-.55-.55l-1.21-8.03h-14.96l-1.21 8.03q-.11.55-.55.55h-12.21q-.44 0-.44-.55m16.61-19.8h10.56l-4.51-30.91-.66-4.07-.44 4.07Z"></path><rect width="43.84" height="76.56" x="-21.92" y="-38.28" fill="none" rx="0" ry="0" transform="translate(148.47 149)"></rect><path fill="red" d="M177.31 186.785q-.55 0-.55-.55l.22-75.57q0-.44.44-.44h21.12q10.12 0 16.01 6.16 5.88 6.16 5.88 16.72 0 7.81-3.08 13.53t-8.03 8.8q-4.95 3.08-10.78 3.08h-8.36v27.72q0 .55-.55.55Zm12.87-41.58h8.36q3.52 0 6.11-3.36 2.58-3.35 2.58-8.74 0-4.29-2.31-7.04t-6.38-2.75l-8.36.11Z"></path><rect width="43.67" height="76.56" x="-21.84" y="-38.28" fill="none" rx="0" ry="0" transform="translate(199.1 149)"></rect><path fill="red" d="m218.67 186.235 13.64-75.57q.11-.44.55-.44h15.95q.44 0 .55.44l13.09 75.57q.11.55-.44.55H249.8q-.44 0-.55-.55l-1.21-8.03h-14.96l-1.21 8.03q-.11.55-.55.55h-12.21q-.44 0-.44-.55m16.61-19.8h10.56l-4.51-30.91-.66-4.07-.44 4.07Z"></path><rect width="43.84" height="76.56" x="-21.92" y="-38.28" fill="none" rx="0" ry="0" transform="translate(241.09 149)"></rect><path fill="red" d="M270.37 186.785q-.88 0-.88-.77l-.11-74.91q0-.88.88-.88h9.9l18.59 43.34-.55-42.46q0-.88.99-.88h10.89q.66 0 .66.88l.11 75.02q0 .66-.55.66h-9.68l-19.03-40.48.77 39.6q0 .88-.99.88Z"></path><rect width="41.47" height="76.56" x="-20.73" y="-38.28" fill="none" rx="0" ry="0" transform="translate(290.62 149)"></rect></svg></svg>